<svg width="40" height="40" viewBox="0 0 40 40" fill="none" xmlns="http://www.w3.org/2000/svg">
<path d="M6.80952 29.7054C6.59482 29.7054 6.38892 29.6202 6.2371 29.4683C6.08529 29.3165 6 29.1106 6 28.8959V11.0864C6 10.8717 6.08529 10.6658 6.2371 10.514C6.38892 10.3622 6.59482 10.2769 6.80952 10.2769C7.02422 10.2769 7.23013 10.3622 7.38194 10.514C7.53376 10.6658 7.61905 10.8717 7.61905 11.0864V28.8959C7.61905 29.1106 7.53376 29.3165 7.38194 29.4683C7.23013 29.6202 7.02422 29.7054 6.80952 29.7054Z" fill="#2690EA"/>
<path d="M9.85733 29.7054C9.69315 29.7054 9.53569 29.6031 9.4196 29.4209C9.3035 29.2387 9.23828 28.9917 9.23828 28.734V11.2483C9.23828 10.9907 9.3035 10.7436 9.4196 10.5614C9.53569 10.3792 9.69315 10.2769 9.85733 10.2769C10.0215 10.2769 10.179 10.3792 10.2951 10.5614C10.4112 10.7436 10.4764 10.9907 10.4764 11.2483V28.734C10.4764 28.9917 10.4112 29.2387 10.2951 29.4209C10.179 29.6031 10.0215 29.7054 9.85733 29.7054Z" fill="#2690EA"/>
<path d="M13.2861 26.4674C13.0714 26.4674 12.8655 26.3963 12.7137 26.2698C12.5619 26.1433 12.4766 25.9717 12.4766 25.7927V10.9515C12.4766 10.7726 12.5619 10.601 12.7137 10.4745C12.8655 10.348 13.0714 10.2769 13.2861 10.2769C13.5008 10.2769 13.7067 10.348 13.8585 10.4745C14.0103 10.601 14.0956 10.7726 14.0956 10.9515V25.7927C14.0956 25.9717 14.0103 26.1433 13.8585 26.2698C13.7067 26.3963 13.5008 26.4674 13.2861 26.4674Z" fill="#2690EA"/>
<path d="M19.7626 26.4674C19.5479 26.4674 19.342 26.3963 19.1902 26.2698C19.0384 26.1433 18.9531 25.9717 18.9531 25.7927V10.9515C18.9531 10.7726 19.0384 10.601 19.1902 10.4745C19.342 10.348 19.5479 10.2769 19.7626 10.2769C19.9773 10.2769 20.1833 10.348 20.3351 10.4745C20.4869 10.601 20.5722 10.7726 20.5722 10.9515V25.7927C20.5722 25.9717 20.4869 26.1433 20.3351 26.2698C20.1833 26.3963 19.9773 26.4674 19.7626 26.4674Z" fill="#2690EA"/>
<path d="M16.3339 26.4674C16.1697 26.4674 16.0123 26.3963 15.8962 26.2698C15.7801 26.1433 15.7148 25.9717 15.7148 25.7927V10.9515C15.7148 10.7726 15.7801 10.601 15.8962 10.4745C16.0123 10.348 16.1697 10.2769 16.3339 10.2769C16.4981 10.2769 16.6555 10.348 16.7716 10.4745C16.8877 10.601 16.9529 10.7726 16.9529 10.9515V25.7927C16.9529 25.9717 16.8877 26.1433 16.7716 26.2698C16.6555 26.3963 16.4981 26.4674 16.3339 26.4674Z" fill="#2690EA"/>
<path d="M23.619 26.4674C23.4549 26.4674 23.2974 26.3821 23.1813 26.2302C23.0652 26.0784 23 25.8725 23 25.6578V11.0864C23 10.8717 23.0652 10.6658 23.1813 10.514C23.2974 10.3622 23.4549 10.2769 23.619 10.2769C23.7832 10.2769 23.9407 10.3622 24.0568 10.514C24.1729 10.6658 24.2381 10.8717 24.2381 11.0864V25.6578C24.2381 25.8725 24.1729 26.0784 24.0568 26.2302C23.9407 26.3821 23.7832 26.4674 23.619 26.4674Z" fill="#2690EA"/>
<path d="M27.0478 26.4674C26.8331 26.4674 26.6272 26.3821 26.4754 26.2302C26.3236 26.0784 26.2383 25.8725 26.2383 25.6578V11.0864C26.2383 10.8717 26.3236 10.6658 26.4754 10.514C26.6272 10.3622 26.8331 10.2769 27.0478 10.2769C27.2625 10.2769 27.4684 10.3622 27.6202 10.514C27.772 10.6658 27.8573 10.8717 27.8573 11.0864V25.6578C27.8573 25.8725 27.772 26.0784 27.6202 26.2302C27.4684 26.3821 27.2625 26.4674 27.0478 26.4674Z" fill="#2690EA"/>
<path d="M30.3339 29.515C30.1697 29.515 30.0123 29.4297 29.8962 29.2779C29.7801 29.126 29.7148 28.9201 29.7148 28.7054V10.8959C29.7148 10.6812 29.7801 10.4753 29.8962 10.3235C30.0123 10.1717 30.1697 10.0864 30.3339 10.0864C30.4981 10.0864 30.6555 10.1717 30.7716 10.3235C30.8877 10.4753 30.9529 10.6812 30.9529 10.8959V28.7054C30.9529 28.9201 30.8877 29.126 30.7716 29.2779C30.6555 29.4297 30.4981 29.515 30.3339 29.515Z" fill="#2690EA"/>
<path d="M33.5244 29.7054C33.3097 29.7054 33.1038 29.6202 32.9519 29.4683C32.8001 29.3165 32.7148 29.1106 32.7148 28.8959V11.0864C32.7148 10.8717 32.8001 10.6658 32.9519 10.514C33.1038 10.3622 33.3097 10.2769 33.5244 10.2769C33.7391 10.2769 33.945 10.3622 34.0968 10.514C34.2486 10.6658 34.3339 10.8717 34.3339 11.0864V28.8959C34.3339 29.1106 34.2486 29.3165 34.0968 29.4683C33.945 29.6202 33.7391 29.7054 33.5244 29.7054Z" fill="#2690EA"/>
<rect x="1" y="6" width="38" height="28" rx="4" stroke="#2690EA" stroke-width="2"/>
</svg>
