<svg width="1680" height="352" viewBox="0 0 1680 352" fill="none" xmlns="http://www.w3.org/2000/svg">
<rect x="7" y="27" width="1731" height="2" fill="#EBEBEB"/>
<rect x="7" y="44" width="1731" height="2" fill="#EBEBEB"/>
<rect x="7" y="61" width="1731" height="2" fill="#EBEBEB"/>
<rect x="7" y="78" width="1731" height="2" fill="#EBEBEB"/>
<rect y="95" width="1738" height="2" fill="#EBEBEB"/>
<rect x="7" y="112" width="1731" height="2" fill="#EBEBEB"/>
<rect x="7" y="129" width="1731" height="2" fill="#EBEBEB"/>
<rect x="7" y="146" width="1731" height="2" fill="#EBEBEB"/>
<rect x="7" y="163" width="1731" height="2" fill="#EBEBEB"/>
<rect y="180" width="1738" height="2" fill="#D7D7D7"/>
<rect x="7" y="197" width="1731" height="2" fill="#EBEBEB"/>
<rect x="7" y="214" width="1731" height="2" fill="#EBEBEB"/>
<rect x="7" y="231" width="1731" height="2" fill="#EBEBEB"/>
<rect x="7" y="248" width="1731" height="2" fill="#EBEBEB"/>
<rect y="265" width="1738" height="2" fill="#EBEBEB"/>
<rect x="7" y="282" width="1731" height="2" fill="#EBEBEB"/>
<rect x="7" y="299" width="1731" height="2" fill="#EBEBEB"/>
<rect x="7" y="316" width="1731" height="2" fill="#EBEBEB"/>
<rect x="7" y="333" width="1731" height="2" fill="#EBEBEB"/>
<rect y="350" width="1738" height="2" fill="#D7D7D7"/>
<rect x="29" y="10" width="342" height="1.99999" transform="rotate(90 29 10)" fill="#EBEBEB"/>
<rect x="46" y="10" width="342" height="1.99999" transform="rotate(90 46 10)" fill="#EBEBEB"/>
<rect x="63" y="10" width="342" height="1.99999" transform="rotate(90 63 10)" fill="#EBEBEB"/>
<rect x="80" y="10" width="342" height="1.99999" transform="rotate(90 80 10)" fill="#EBEBEB"/>
<rect x="97" y="10" width="342" height="1.99999" transform="rotate(90 97 10)" fill="#EBEBEB"/>
<rect x="114" y="10" width="342" height="1.99999" transform="rotate(90 114 10)" fill="#EBEBEB"/>
<rect x="131" y="10" width="342" height="1.99999" transform="rotate(90 131 10)" fill="#EBEBEB"/>
<rect x="148" y="10" width="342" height="1.99999" transform="rotate(90 148 10)" fill="#EBEBEB"/>
<rect x="165" y="10" width="342" height="1.99999" transform="rotate(90 165 10)" fill="#EBEBEB"/>
<rect x="182" width="352" height="1.99998" transform="rotate(90 182 0)" fill="#D7D7D7"/>
<rect x="199" y="10" width="342" height="1.99999" transform="rotate(90 199 10)" fill="#EBEBEB"/>
<rect x="216" y="10" width="342" height="1.99999" transform="rotate(90 216 10)" fill="#EBEBEB"/>
<rect x="233" y="10" width="342" height="1.99999" transform="rotate(90 233 10)" fill="#EBEBEB"/>
<rect x="250" y="10" width="342" height="1.99999" transform="rotate(90 250 10)" fill="#EBEBEB"/>
<rect x="267" y="10" width="342" height="1.99999" transform="rotate(90 267 10)" fill="#EBEBEB"/>
<rect x="284" y="10" width="342" height="1.99999" transform="rotate(90 284 10)" fill="#EBEBEB"/>
<rect x="301" y="10" width="342" height="1.99999" transform="rotate(90 301 10)" fill="#EBEBEB"/>
<rect x="318" y="10" width="342" height="1.99999" transform="rotate(90 318 10)" fill="#EBEBEB"/>
<rect x="335" y="10" width="342" height="1.99999" transform="rotate(90 335 10)" fill="#EBEBEB"/>
<rect x="352" width="352" height="1.99998" transform="rotate(90 352 0)" fill="#D7D7D7"/>
<rect x="369" y="10" width="342" height="1.99999" transform="rotate(90 369 10)" fill="#EBEBEB"/>
<rect x="386" y="10" width="342" height="1.99999" transform="rotate(90 386 10)" fill="#EBEBEB"/>
<rect x="403" y="10" width="342" height="1.99999" transform="rotate(90 403 10)" fill="#EBEBEB"/>
<rect x="420" y="10" width="342" height="1.99999" transform="rotate(90 420 10)" fill="#EBEBEB"/>
<rect x="437" y="10" width="342" height="1.99999" transform="rotate(90 437 10)" fill="#EBEBEB"/>
<rect x="454" y="10" width="342" height="1.99999" transform="rotate(90 454 10)" fill="#EBEBEB"/>
<rect x="471" y="10" width="342" height="1.99999" transform="rotate(90 471 10)" fill="#EBEBEB"/>
<rect x="488" y="10" width="342" height="1.99999" transform="rotate(90 488 10)" fill="#EBEBEB"/>
<rect x="505" y="10" width="342" height="1.99999" transform="rotate(90 505 10)" fill="#EBEBEB"/>
<rect x="522" width="352" height="1.99998" transform="rotate(90 522 0)" fill="#D7D7D7"/>
<rect x="539" y="10" width="342" height="1.99999" transform="rotate(90 539 10)" fill="#EBEBEB"/>
<rect x="556" y="10" width="342" height="1.99999" transform="rotate(90 556 10)" fill="#EBEBEB"/>
<rect x="573" y="10" width="342" height="1.99999" transform="rotate(90 573 10)" fill="#EBEBEB"/>
<rect x="590" y="10" width="342" height="1.99999" transform="rotate(90 590 10)" fill="#EBEBEB"/>
<rect x="607" y="10" width="342" height="1.99999" transform="rotate(90 607 10)" fill="#EBEBEB"/>
<rect x="624" y="10" width="342" height="1.99999" transform="rotate(90 624 10)" fill="#EBEBEB"/>
<rect x="641" y="10" width="342" height="1.99999" transform="rotate(90 641 10)" fill="#EBEBEB"/>
<rect x="658" y="10" width="342" height="1.99999" transform="rotate(90 658 10)" fill="#EBEBEB"/>
<rect x="675" y="10" width="342" height="1.99999" transform="rotate(90 675 10)" fill="#EBEBEB"/>
<rect x="692" width="352" height="1.99998" transform="rotate(90 692 0)" fill="#D7D7D7"/>
<rect x="709" y="10" width="342" height="1.99999" transform="rotate(90 709 10)" fill="#EBEBEB"/>
<rect x="726" y="10" width="342" height="1.99999" transform="rotate(90 726 10)" fill="#EBEBEB"/>
<rect x="743" y="10" width="342" height="1.99999" transform="rotate(90 743 10)" fill="#EBEBEB"/>
<rect x="760" y="10" width="342" height="1.99999" transform="rotate(90 760 10)" fill="#EBEBEB"/>
<rect x="777" y="10" width="342" height="1.99999" transform="rotate(90 777 10)" fill="#EBEBEB"/>
<rect x="794" y="10" width="342" height="1.99999" transform="rotate(90 794 10)" fill="#EBEBEB"/>
<rect x="811" y="10" width="342" height="1.99999" transform="rotate(90 811 10)" fill="#EBEBEB"/>
<rect x="828" y="10" width="342" height="1.99999" transform="rotate(90 828 10)" fill="#EBEBEB"/>
<rect x="845" y="10" width="342" height="1.99999" transform="rotate(90 845 10)" fill="#EBEBEB"/>
<rect x="862" width="352" height="1.99998" transform="rotate(90 862 0)" fill="#D7D7D7"/>
<rect x="879" y="10" width="342" height="1.99999" transform="rotate(90 879 10)" fill="#EBEBEB"/>
<rect x="896" y="10" width="342" height="1.99999" transform="rotate(90 896 10)" fill="#EBEBEB"/>
<rect x="913" y="10" width="342" height="1.99999" transform="rotate(90 913 10)" fill="#EBEBEB"/>
<rect x="930" y="10" width="342" height="1.99999" transform="rotate(90 930 10)" fill="#EBEBEB"/>
<rect x="947" y="10" width="342" height="1.99999" transform="rotate(90 947 10)" fill="#EBEBEB"/>
<rect x="964" y="10" width="342" height="1.99999" transform="rotate(90 964 10)" fill="#EBEBEB"/>
<rect x="981" y="10" width="342" height="1.99999" transform="rotate(90 981 10)" fill="#EBEBEB"/>
<rect x="998" y="10" width="342" height="1.99999" transform="rotate(90 998 10)" fill="#EBEBEB"/>
<rect x="1015" y="10" width="342" height="1.99999" transform="rotate(90 1015 10)" fill="#EBEBEB"/>
<rect x="1032" width="352" height="1.99998" transform="rotate(90 1032 0)" fill="#D7D7D7"/>
<rect x="1049" y="10" width="342" height="1.99999" transform="rotate(90 1049 10)" fill="#EBEBEB"/>
<rect x="1066" y="10" width="342" height="1.99999" transform="rotate(90 1066 10)" fill="#EBEBEB"/>
<rect x="1083" y="10" width="342" height="1.99999" transform="rotate(90 1083 10)" fill="#EBEBEB"/>
<rect x="1100" y="10" width="342" height="1.99999" transform="rotate(90 1100 10)" fill="#EBEBEB"/>
<rect x="1117" y="10" width="342" height="1.99999" transform="rotate(90 1117 10)" fill="#EBEBEB"/>
<rect x="1134" y="10" width="342" height="1.99999" transform="rotate(90 1134 10)" fill="#EBEBEB"/>
<rect x="1151" y="10" width="342" height="1.99999" transform="rotate(90 1151 10)" fill="#EBEBEB"/>
<rect x="1168" y="10" width="342" height="1.99999" transform="rotate(90 1168 10)" fill="#EBEBEB"/>
<rect x="1185" y="10" width="342" height="1.99999" transform="rotate(90 1185 10)" fill="#EBEBEB"/>
<rect x="1202" width="352" height="1.99998" transform="rotate(90 1202 0)" fill="#EBEBEB"/>
<rect x="1219" y="10" width="342" height="1.99999" transform="rotate(90 1219 10)" fill="#EBEBEB"/>
<rect x="1236" y="10" width="342" height="1.99999" transform="rotate(90 1236 10)" fill="#EBEBEB"/>
<rect x="1253" y="10" width="342" height="1.99999" transform="rotate(90 1253 10)" fill="#EBEBEB"/>
<rect x="1270" y="10" width="342" height="1.99999" transform="rotate(90 1270 10)" fill="#EBEBEB"/>
<rect x="1287" y="10" width="342" height="1.99999" transform="rotate(90 1287 10)" fill="#EBEBEB"/>
<rect x="1304" y="10" width="342" height="1.99999" transform="rotate(90 1304 10)" fill="#EBEBEB"/>
<rect x="1321" y="10" width="342" height="1.99999" transform="rotate(90 1321 10)" fill="#EBEBEB"/>
<rect x="1338" y="10" width="342" height="1.99999" transform="rotate(90 1338 10)" fill="#EBEBEB"/>
<rect x="1355" y="10" width="342" height="1.99999" transform="rotate(90 1355 10)" fill="#EBEBEB"/>
<rect x="1372" y="10" width="342" height="1.99999" transform="rotate(90 1372 10)" fill="#EBEBEB"/>
<rect x="1389" y="10" width="342" height="1.99999" transform="rotate(90 1389 10)" fill="#EBEBEB"/>
<rect x="1406" y="10" width="342" height="1.99999" transform="rotate(90 1406 10)" fill="#EBEBEB"/>
<rect x="1423" y="10" width="342" height="1.99999" transform="rotate(90 1423 10)" fill="#EBEBEB"/>
<rect x="1440" y="10" width="342" height="1.99999" transform="rotate(90 1440 10)" fill="#EBEBEB"/>
<rect x="1457" y="10" width="342" height="1.99999" transform="rotate(90 1457 10)" fill="#EBEBEB"/>
<rect x="1474" y="10" width="342" height="1.99999" transform="rotate(90 1474 10)" fill="#EBEBEB"/>
<rect x="1491" y="10" width="342" height="1.99999" transform="rotate(90 1491 10)" fill="#EBEBEB"/>
<rect x="1508" y="10" width="342" height="1.99999" transform="rotate(90 1508 10)" fill="#EBEBEB"/>
<rect x="1525" y="10" width="342" height="1.99999" transform="rotate(90 1525 10)" fill="#EBEBEB"/>
<rect x="1542" y="10" width="342" height="1.99999" transform="rotate(90 1542 10)" fill="#EBEBEB"/>
<rect x="1559" y="10" width="342" height="1.99999" transform="rotate(90 1559 10)" fill="#EBEBEB"/>
<rect x="1576" y="10" width="342" height="1.99999" transform="rotate(90 1576 10)" fill="#EBEBEB"/>
<rect x="1593" y="10" width="342" height="1.99999" transform="rotate(90 1593 10)" fill="#EBEBEB"/>
<rect x="1610" y="10" width="342" height="1.99999" transform="rotate(90 1610 10)" fill="#EBEBEB"/>
<rect x="1627" y="10" width="342" height="1.99999" transform="rotate(90 1627 10)" fill="#EBEBEB"/>
<rect x="1644" y="10" width="342" height="1.99999" transform="rotate(90 1644 10)" fill="#EBEBEB"/>
<rect x="1661" y="10" width="342" height="1.99999" transform="rotate(90 1661 10)" fill="#EBEBEB"/>
<rect x="1678" y="10" width="342" height="1.99999" transform="rotate(90 1678 10)" fill="#EBEBEB"/>
<rect x="7" y="7" width="1731" height="5" fill="#C8C8C8"/>
<rect x="12" y="7" width="345" height="4.99998" transform="rotate(90 12 7)" fill="#C8C8C8"/>
</svg>
