<svg width="24" height="24" viewBox="0 0 24 24" fill="none" xmlns="http://www.w3.org/2000/svg">
<path d="M12 15C13.6569 15 15 13.6569 15 12C15 10.3431 13.6569 9 12 9C10.3431 9 9 10.3431 9 12C9 13.6569 10.3431 15 12 15Z" stroke="#787878" stroke-width="2" stroke-miterlimit="10" stroke-linecap="round" stroke-linejoin="round"/>
<path d="M20.8187 7.7745L20.0687 6.4755C19.6547 5.75775 18.7374 5.5125 18.0197 5.9265L17.6252 6.1545C16.1252 7.02 14.2502 5.93775 14.2502 4.206V3.75C14.2502 2.92125 13.5789 2.25 12.7502 2.25H11.2502C10.4214 2.25 9.75016 2.92125 9.75016 3.75V4.206C9.75016 5.93775 7.87516 7.02075 6.37516 6.1545L5.98066 5.9265C5.26291 5.5125 4.34566 5.75775 3.93166 6.4755L3.18166 7.7745C2.76766 8.49225 3.01291 9.4095 3.73066 9.8235L4.12516 10.0515C5.62516 10.9178 5.62516 13.0822 4.12516 13.9485L3.73066 14.1765C3.01291 14.5905 2.76766 15.5078 3.18166 16.2255L3.93166 17.5245C4.34566 18.2422 5.26291 18.4875 5.98066 18.0735L6.37516 17.8455C7.87516 16.9793 9.75016 18.0623 9.75016 19.794V20.25C9.75016 21.0788 10.4214 21.75 11.2502 21.75H12.7502C13.5789 21.75 14.2502 21.0788 14.2502 20.25V19.794C14.2502 18.0623 16.1252 16.9793 17.6252 17.8455L18.0197 18.0735C18.7374 18.4875 19.6547 18.2422 20.0687 17.5245L20.8187 16.2255C21.2327 15.5078 20.9874 14.5905 20.2697 14.1765L19.8752 13.9485C18.3752 13.0822 18.3752 10.9178 19.8752 10.0515L20.2697 9.8235C20.9874 9.4095 21.2334 8.49225 20.8187 7.7745Z" stroke="#787878" stroke-width="2" stroke-miterlimit="10" stroke-linecap="round" stroke-linejoin="round"/>
</svg>
