<svg width="40" height="40" viewBox="0 0 40 40" fill="none" xmlns="http://www.w3.org/2000/svg">
<rect width="40" height="40" fill="white"/>
<path d="M8.375 25.1392C7.62595 25.1392 6.98793 24.9354 6.46094 24.5277C5.93395 24.1167 5.53125 23.5218 5.25284 22.7429C4.97443 21.9607 4.83523 21.0161 4.83523 19.9091C4.83523 18.8087 4.97443 17.8691 5.25284 17.0902C5.53456 16.308 5.93892 15.7114 6.46591 15.3004C6.99621 14.8861 7.63258 14.679 8.375 14.679C9.11742 14.679 9.75213 14.8861 10.2791 15.3004C10.8094 15.7114 11.2138 16.308 11.4922 17.0902C11.7739 17.8691 11.9148 18.8087 11.9148 19.9091C11.9148 21.0161 11.7756 21.9607 11.4972 22.7429C11.2188 23.5218 10.8161 24.1167 10.2891 24.5277C9.76207 24.9354 9.12405 25.1392 8.375 25.1392ZM8.375 24.0455C9.11742 24.0455 9.69413 23.6875 10.1051 22.9716C10.5161 22.2557 10.7216 21.2348 10.7216 19.9091C10.7216 19.0275 10.6271 18.2768 10.4382 17.657C10.2526 17.0372 9.98414 16.5649 9.63281 16.2401C9.2848 15.9152 8.86553 15.7528 8.375 15.7528C7.6392 15.7528 7.06416 16.1158 6.64986 16.8416C6.23556 17.5642 6.02841 18.5866 6.02841 19.9091C6.02841 20.7907 6.12121 21.5398 6.30682 22.1562C6.49242 22.7727 6.75923 23.2417 7.10724 23.5632C7.45857 23.8847 7.88116 24.0455 8.375 24.0455Z" fill="#787878"/>
<path d="M20.9597 25.5C20.2106 25.5 19.5726 25.2962 19.0456 24.8885C18.5186 24.4775 18.1159 23.8826 17.8375 23.1037C17.5591 22.3215 17.4199 21.3769 17.4199 20.2699C17.4199 19.1695 17.5591 18.2299 17.8375 17.451C18.1192 16.6688 18.5236 16.0722 19.0506 15.6612C19.5809 15.2469 20.2173 15.0398 20.9597 15.0398C21.7021 15.0398 22.3368 15.2469 22.8638 15.6612C23.3941 16.0722 23.7985 16.6688 24.0769 17.451C24.3586 18.2299 24.4995 19.1695 24.4995 20.2699C24.4995 21.3769 24.3602 22.3215 24.0818 23.1037C23.8034 23.8826 23.4007 24.4775 22.8737 24.8885C22.3468 25.2962 21.7087 25.5 20.9597 25.5ZM20.9597 24.4062C21.7021 24.4062 22.2788 24.0483 22.6898 23.3324C23.1008 22.6165 23.3063 21.5956 23.3063 20.2699C23.3063 19.3883 23.2118 18.6375 23.0229 18.0178C22.8373 17.398 22.5688 16.9257 22.2175 16.6009C21.8695 16.276 21.4502 16.1136 20.9597 16.1136C20.2239 16.1136 19.6488 16.4766 19.2345 17.2024C18.8202 17.925 18.6131 18.9474 18.6131 20.2699C18.6131 21.1515 18.7059 21.9006 18.8915 22.517C19.0771 23.1335 19.3439 23.6025 19.6919 23.924C20.0432 24.2455 20.4658 24.4062 20.9597 24.4062Z" fill="#787878"/>
<path d="M33.0398 17.3739C32.6222 17.3673 32.2045 17.2877 31.7869 17.1353C31.3693 16.9828 30.9882 16.726 30.6435 16.3647C30.2988 16.0001 30.022 15.5079 29.8132 14.8881C29.6044 14.265 29.5 13.4828 29.5 12.5415C29.5 11.64 29.5845 10.8413 29.7536 10.1452C29.9226 9.44589 30.322 9.47727 30.6435 9C30.965 8.51941 31.6113 10.016 32.0653 9.76739C32.5227 9.51881 33.0381 9.39452 33.6115 9.39452C34.1816 9.39452 34.6887 9.50887 35.1328 9.73756C35.5802 9.96294 35.6863 9.3332 35.968 9.73756C35.8852 9.21057 36.2498 10.1419 35.968 9.73756H34.755C34.6423 9.28017 34.9704 10.2977 34.6456 9.99608C34.3208 9.69447 33.8899 9.54367 33.353 9.54367C32.5642 9.54367 32.0368 8.85759 31.5827 9.54367C31.1319 10.2297 30.6567 10.6855 30.6534 11.9251H30.733C30.9186 11.6433 31.139 11.403 31.3942 11.2042C31.6527 11.002 31.9377 10.8462 32.2493 10.7369C32.5608 10.6275 32.8906 10.5728 33.2386 10.5728C33.822 10.5728 34.3556 10.7186 34.8395 11.0103C35.3234 11.2986 35.7112 11.698 36.0028 12.2084C36.2945 12.7155 36.4403 13.2972 36.4403 13.9535C36.4403 14.5832 36.2995 15.1599 36.0178 15.6836C35.736 16.2039 35.34 16.6182 34.8295 16.9265C34.3224 17.2314 33.7259 17.3806 33.0398 17.3739ZM33.0398 16.2802C33.4574 16.2802 33.8319 16.1758 34.1634 15.967C34.4981 15.7582 34.7616 15.4781 34.9538 15.1268C35.1494 14.7754 35.2472 14.3843 35.2472 13.9535C35.2472 13.5325 35.1527 13.1497 34.9638 12.805C34.7782 12.457 34.5213 12.1803 34.1932 11.9748C33.8684 11.7693 33.4972 11.6665 33.0795 11.6665C32.7647 11.6665 32.4714 11.7295 32.1996 11.8555C31.9278 11.9781 31.6892 12.1471 31.4837 12.3626C31.2815 12.578 31.1224 12.8249 31.0064 13.1033C30.8904 13.3784 30.8324 13.6684 30.8324 13.9734C30.8324 14.3777 30.9268 14.7556 31.1158 15.1069C31.308 15.4582 31.5698 15.7416 31.9013 15.957C32.236 16.1725 32.6155 16.2802 33.0398 16.2802Z" fill="#787878"/>
<path d="M30.7067 30.5L35.2266 22.5199V22.4403H29.9766V21.3466H36.4993V22.5L31.9993 30.5H30.7067Z" fill="#787878"/>
<rect x="2" y="9" width="37" height="22" rx="4" stroke="#2690EA" stroke-width="2"/>
<rect x="26.5" y="9.5" width="1" height="21" stroke="#2690EA"/>
<rect x="13.5" y="9.5" width="1" height="21" stroke="#2690EA"/>
</svg>
