<svg width="24" height="24" viewBox="0 0 24 24" fill="none" xmlns="http://www.w3.org/2000/svg">
<g clip-path="url(#clip0_157_3856)">
<path d="M8 17L12 21L16 17" stroke="#505050" stroke-width="2" stroke-linecap="round" stroke-linejoin="round"/>
<path d="M12 12V21" stroke="#505050" stroke-width="2" stroke-linecap="round" stroke-linejoin="round"/>
<path d="M20.8792 18.09C21.7486 17.4786 22.4006 16.6062 22.7405 15.5991C23.0804 14.5921 23.0906 13.503 22.7696 12.4898C22.4486 11.4766 21.8131 10.5921 20.9553 9.96456C20.0975 9.33703 19.062 8.99917 17.9992 9H16.7392C16.4384 7.82787 15.8757 6.73925 15.0933 5.81608C14.311 4.89291 13.3293 4.15926 12.2224 3.67035C11.1155 3.18145 9.91204 2.95003 8.70273 2.99352C7.49341 3.03701 6.30971 3.35427 5.24075 3.92143C4.17179 4.48858 3.24543 5.29085 2.53139 6.26783C1.81735 7.24481 1.33425 8.37105 1.11846 9.56175C0.902671 10.7525 0.959811 11.9766 1.28558 13.142C1.61135 14.3074 2.19726 15.3838 2.9992 16.29" stroke="#505050" stroke-width="2" stroke-linecap="round" stroke-linejoin="round"/>
</g>
<defs>
<clipPath id="clip0_157_3856">
<rect width="24" height="24" fill="white"/>
</clipPath>
</defs>
</svg>
