<svg width="34" height="34" viewBox="0 0 34 34" fill="none" xmlns="http://www.w3.org/2000/svg">
<path d="M26.5625 2.125H7.4375C6.02854 2.125 4.67728 2.68471 3.681 3.681C2.68471 4.67728 2.125 6.02854 2.125 7.4375V26.5625C2.125 27.9715 2.68471 29.3227 3.681 30.319C4.67728 31.3153 6.02854 31.875 7.4375 31.875H26.5625C27.9715 31.875 29.3227 31.3153 30.319 30.319C31.3153 29.3227 31.875 27.9715 31.875 26.5625V7.4375C31.875 6.02854 31.3153 4.67728 30.319 3.681C29.3227 2.68471 27.9715 2.125 26.5625 2.125ZM7.4375 4.25H26.5625C27.4079 4.25 28.2186 4.58582 28.8164 5.1836C29.4142 5.78137 29.75 6.59212 29.75 7.4375V13.3769L27.7525 11.3794C27.1548 10.7825 26.3447 10.4472 25.5 10.4472C24.6553 10.4472 23.8452 10.7825 23.2475 11.3794L14.8006 19.8794L11.6131 17.3081C11.0436 16.842 10.3303 16.5874 9.59437 16.5874C8.85843 16.5874 8.14516 16.842 7.57562 17.3081L4.25 20.0387V7.4375C4.25 6.59212 4.58582 5.78137 5.1836 5.1836C5.78137 4.58582 6.59212 4.25 7.4375 4.25ZM26.5625 29.75H7.4375C6.59212 29.75 5.78137 29.4142 5.1836 28.8164C4.58582 28.2186 4.25 27.4079 4.25 26.5625V22.8119L8.90375 18.9231C9.09387 18.7668 9.33234 18.6814 9.57844 18.6814C9.82454 18.6814 10.063 18.7668 10.2531 18.9231L14.2163 22.1106C14.4198 22.2739 14.6764 22.3566 14.937 22.3429C15.1976 22.3292 15.4441 22.22 15.6294 22.0362L24.7456 12.9094C24.8444 12.8098 24.9619 12.7307 25.0914 12.6768C25.2209 12.6229 25.3597 12.5951 25.5 12.5951C25.6403 12.5951 25.7791 12.6229 25.9086 12.6768C26.0381 12.7307 26.1556 12.8098 26.2544 12.9094L29.75 16.3731V26.5625C29.75 27.4079 29.4142 28.2186 28.8164 28.8164C28.2186 29.4142 27.4079 29.75 26.5625 29.75Z" fill="#2690EA"/>
<path d="M10.625 13.8125C11.2554 13.8125 11.8717 13.6256 12.3959 13.2753C12.9201 12.9251 13.3286 12.4272 13.5699 11.8448C13.8111 11.2624 13.8742 10.6215 13.7513 10.0031C13.6283 9.38484 13.3247 8.81688 12.8789 8.3711C12.4331 7.92532 11.8652 7.62174 11.2469 7.49875C10.6285 7.37576 9.98764 7.43888 9.4052 7.68013C8.82276 7.92139 8.32494 8.32994 7.97469 8.85412C7.62444 9.3783 7.4375 9.99457 7.4375 10.625C7.4375 11.4704 7.77333 12.2811 8.3711 12.8789C8.96887 13.4767 9.77962 13.8125 10.625 13.8125ZM10.625 9.5625C10.8351 9.5625 11.0406 9.62481 11.2153 9.74156C11.39 9.85831 11.5262 10.0243 11.6066 10.2184C11.687 10.4125 11.7081 10.6262 11.6671 10.8323C11.6261 11.0384 11.5249 11.2277 11.3763 11.3763C11.2277 11.5249 11.0384 11.6261 10.8323 11.6671C10.6262 11.7081 10.4125 11.687 10.2184 11.6066C10.0243 11.5262 9.85831 11.39 9.74156 11.2153C9.62481 11.0406 9.5625 10.8351 9.5625 10.625C9.5625 10.3432 9.67444 10.073 9.8737 9.8737C10.073 9.67444 10.3432 9.5625 10.625 9.5625Z" fill="#2690EA"/>
</svg>
