<svg width="16" height="16" viewBox="0 0 16 16" fill="none" xmlns="http://www.w3.org/2000/svg">
<g clip-path="url(#clip0_157_3903)">
<path d="M10.6673 10.6667L8.00065 8L5.33398 10.6667" stroke="#2690EA" stroke-width="1.5" stroke-linecap="round" stroke-linejoin="round"/>
<path d="M8 8V14" stroke="#2690EA" stroke-width="1.5" stroke-linecap="round" stroke-linejoin="round"/>
<path d="M13.5943 12.26C14.2445 11.9055 14.7582 11.3446 15.0542 10.6658C15.3502 9.98691 15.4118 9.22882 15.2291 8.51113C15.0464 7.79343 14.6299 7.15701 14.0454 6.7023C13.4609 6.24759 12.7415 6.00049 12.001 6H11.161C10.9592 5.2195 10.5831 4.49489 10.0609 3.88066C9.53877 3.26644 8.88418 2.77857 8.14635 2.45374C7.40852 2.12891 6.60665 1.97557 5.80103 2.00526C4.99541 2.03494 4.20699 2.24687 3.49507 2.62511C2.78314 3.00336 2.16622 3.53807 1.6907 4.18906C1.21517 4.84004 0.89341 5.59036 0.749603 6.3836C0.605797 7.17684 0.643687 7.99235 0.860426 8.76884C1.07716 9.54533 1.46711 10.2626 2.00095 10.8667" stroke="#2690EA" stroke-width="1.5" stroke-linecap="round" stroke-linejoin="round"/>
</g>
<defs>
<clipPath id="clip0_157_3903">
<rect width="16" height="16" fill="white"/>
</clipPath>
</defs>
</svg>
