<svg width="24" height="24" viewBox="0 0 24 24" fill="none" xmlns="http://www.w3.org/2000/svg">
<path d="M11.1103 0.497638C11.6528 0.497638 12.1831 0.658516 12.6342 0.959929C13.0853 1.26134 13.4369 1.68975 13.6445 2.19098C13.8521 2.69221 13.9065 3.24375 13.8006 3.77586C13.6948 4.30796 13.4335 4.79673 13.0499 5.18036C12.6663 5.56398 12.1775 5.82523 11.6454 5.93108C11.1133 6.03692 10.5618 5.9826 10.0605 5.77498C9.5593 5.56736 9.13089 5.21578 8.82948 4.76468C8.52807 4.31358 8.36719 3.78324 8.36719 3.24071C8.36692 2.88041 8.4377 2.52359 8.57545 2.19067C8.71321 1.85775 8.91526 1.55525 9.17003 1.30048C9.4248 1.04571 9.7273 0.843662 10.0602 0.705904C10.3931 0.568145 10.75 0.497374 11.1103 0.497638Z" fill="#2D3E50"/>
<path d="M9.31542 8.44256C8.93818 8.5095 8.59655 8.70712 8.35045 9.00077C8.10435 9.29442 7.9695 9.66534 7.96955 10.0485C7.9695 10.2626 8.01164 10.4747 8.09356 10.6726C8.17549 10.8704 8.2956 11.0502 8.44703 11.2016C8.59846 11.3531 8.77824 11.4732 8.9761 11.5551C9.17396 11.637 9.38603 11.6792 9.60018 11.6791H9.76182V20.7118H8.88945C8.51939 20.7117 8.16449 20.8588 7.90282 21.1204C7.64115 21.3821 7.49414 21.737 7.49414 22.1071C7.49414 22.4771 7.64115 22.832 7.90282 23.0937C8.16449 23.3554 8.51939 23.5024 8.88945 23.5024H15.1125C15.4825 23.5024 15.8374 23.3554 16.0991 23.0937C16.3608 22.832 16.5078 22.4771 16.5078 22.1071C16.5078 21.737 16.3608 21.3821 16.0991 21.1204C15.8374 20.8588 15.4825 20.7117 15.1125 20.7118H14.2496V9.18123C14.2496 8.97314 14.2035 8.76764 14.1146 8.57952C14.0256 8.39139 13.8961 8.22531 13.7353 8.09323C13.5745 7.96115 13.3865 7.86636 13.1847 7.81566C12.9828 7.76497 12.7723 7.75963 12.5682 7.80004C11.1604 8.07877 9.37126 8.43275 9.31542 8.44256Z" fill="#2D3E50"/>
</svg>
