<svg width="18" height="18" viewBox="0 0 18 18" fill="none" xmlns="http://www.w3.org/2000/svg">
<g clip-path="url(#clip0_157_4391)">
<path d="M0.75 2V6.5H5.25" stroke="#505050" stroke-width="1.5" stroke-linecap="round" stroke-linejoin="round"/>
<path d="M17.25 16V11.5H12.75" stroke="#505050" stroke-width="1.5" stroke-linecap="round" stroke-linejoin="round"/>
<path d="M15.3675 5.75C14.9871 4.67508 14.3406 3.71405 13.4884 2.95656C12.6361 2.19907 11.6059 1.66982 10.4938 1.41819C9.38167 1.16656 8.22393 1.20075 7.12861 1.51758C6.03328 1.8344 5.03606 2.42353 4.23 3.23L0.75 6.5M17.25 11.5L13.77 14.77C12.9639 15.5765 11.9667 16.1656 10.8714 16.4824C9.77607 16.7992 8.61833 16.8334 7.50622 16.5818C6.3941 16.3302 5.36385 15.8009 4.5116 15.0434C3.65935 14.2859 3.01288 13.3249 2.6325 12.25" stroke="#505050" stroke-width="1.5" stroke-linecap="round" stroke-linejoin="round"/>
</g>
<defs>
<clipPath id="clip0_157_4391">
<rect width="18" height="18" fill="white"/>
</clipPath>
</defs>
</svg>
