<svg width="45" height="45" viewBox="0 0 45 45" fill="none" xmlns="http://www.w3.org/2000/svg">
<rect x="7" y="7" width="32" height="32" rx="4" stroke="#AAAAAA" stroke-width="2"/>
<path d="M23 26C24.6569 26 26 24.6569 26 23C26 21.3431 24.6569 20 23 20C21.3431 20 20 21.3431 20 23C20 24.6569 21.3431 26 23 26Z" stroke="#AAAAAA" stroke-width="2" stroke-miterlimit="10" stroke-linecap="round" stroke-linejoin="round"/>
<path d="M31.8187 18.7745L31.0687 17.4755C30.6547 16.7577 29.7374 16.5125 29.0197 16.9265L28.6252 17.1545C27.1252 18.02 25.2502 16.9377 25.2502 15.206V14.75C25.2502 13.9212 24.5789 13.25 23.7502 13.25H22.2502C21.4214 13.25 20.7502 13.9212 20.7502 14.75V15.206C20.7502 16.9377 18.8752 18.0208 17.3752 17.1545L16.9807 16.9265C16.2629 16.5125 15.3457 16.7577 14.9317 17.4755L14.1817 18.7745C13.7677 19.4923 14.0129 20.4095 14.7307 20.8235L15.1252 21.0515C16.6252 21.9178 16.6252 24.0822 15.1252 24.9485L14.7307 25.1765C14.0129 25.5905 13.7677 26.5078 14.1817 27.2255L14.9317 28.5245C15.3457 29.2422 16.2629 29.4875 16.9807 29.0735L17.3752 28.8455C18.8752 27.9793 20.7502 29.0623 20.7502 30.794V31.25C20.7502 32.0788 21.4214 32.75 22.2502 32.75H23.7502C24.5789 32.75 25.2502 32.0788 25.2502 31.25V30.794C25.2502 29.0623 27.1252 27.9793 28.6252 28.8455L29.0197 29.0735C29.7374 29.4875 30.6547 29.2422 31.0687 28.5245L31.8187 27.2255C32.2327 26.5078 31.9874 25.5905 31.2697 25.1765L30.8752 24.9485C29.3752 24.0822 29.3752 21.9178 30.8752 21.0515L31.2697 20.8235C31.9874 20.4095 32.2334 19.4923 31.8187 18.7745Z" stroke="#AAAAAA" stroke-width="2" stroke-miterlimit="10" stroke-linecap="round" stroke-linejoin="round"/>
</svg>
