<svg width="332" height="67" viewBox="0 0 332 67" fill="none" xmlns="http://www.w3.org/2000/svg">
<rect x="1.33594" y="6.54596" width="330.283" height="0.385057" fill="#EBEBEB"/>
<rect x="1.33594" y="11.1667" width="330.283" height="0.385057" fill="#EBEBEB"/>
<rect x="1.33594" y="15.7874" width="330.283" height="0.385057" fill="#EBEBEB"/>
<rect x="1.33594" y="20.4081" width="330.283" height="0.385057" fill="#EBEBEB"/>
<rect y="25.0287" width="331.618" height="0.385057" fill="#EBEBEB"/>
<rect x="1.33594" y="29.6494" width="330.283" height="0.385057" fill="#EBEBEB"/>
<rect x="1.33594" y="34.2701" width="330.283" height="0.385057" fill="#EBEBEB"/>
<rect x="1.33594" y="38.8908" width="330.283" height="0.385057" fill="#EBEBEB"/>
<rect x="1.33594" y="43.5115" width="330.283" height="0.385057" fill="#EBEBEB"/>
<rect y="48.1322" width="331.618" height="0.385057" fill="#D7D7D7"/>
<rect x="1.33594" y="52.7529" width="330.283" height="0.385057" fill="#EBEBEB"/>
<rect x="1.33594" y="57.3735" width="330.283" height="0.385057" fill="#EBEBEB"/>
<rect x="1.33594" y="61.9943" width="330.283" height="0.385057" fill="#EBEBEB"/>
<rect x="1.33594" y="66.6149" width="330.283" height="0.385057" fill="#EBEBEB"/>
<rect x="6.86914" y="1.92529" width="65.0747" height="0.381606" transform="rotate(90 6.86914 1.92529)" fill="#EBEBEB"/>
<rect x="11.4492" y="1.92529" width="65.0747" height="0.381606" transform="rotate(90 11.4492 1.92529)" fill="#EBEBEB"/>
<rect x="16.0273" y="1.92529" width="65.0747" height="0.381606" transform="rotate(90 16.0273 1.92529)" fill="#EBEBEB"/>
<rect x="20.6074" y="1.92529" width="65.0747" height="0.381606" transform="rotate(90 20.6074 1.92529)" fill="#EBEBEB"/>
<rect x="25.1855" y="1.92529" width="65.0747" height="0.381606" transform="rotate(90 25.1855 1.92529)" fill="#EBEBEB"/>
<rect x="29.7656" y="1.92529" width="65.0747" height="0.381606" transform="rotate(90 29.7656 1.92529)" fill="#EBEBEB"/>
<rect x="34.3438" y="1.92529" width="65.0747" height="0.381606" transform="rotate(90 34.3438 1.92529)" fill="#EBEBEB"/>
<rect x="38.9238" y="1.92529" width="65.0747" height="0.381606" transform="rotate(90 38.9238 1.92529)" fill="#EBEBEB"/>
<rect x="43.5039" y="1.92529" width="65.0747" height="0.381606" transform="rotate(90 43.5039 1.92529)" fill="#EBEBEB"/>
<rect x="48.082" width="67" height="0.381606" transform="rotate(90 48.082 0)" fill="#D7D7D7"/>
<rect x="52.6621" y="1.92529" width="65.0747" height="0.381606" transform="rotate(90 52.6621 1.92529)" fill="#EBEBEB"/>
<rect x="57.2422" y="1.92529" width="65.0747" height="0.381606" transform="rotate(90 57.2422 1.92529)" fill="#EBEBEB"/>
<rect x="61.8203" y="1.92529" width="65.0747" height="0.381606" transform="rotate(90 61.8203 1.92529)" fill="#EBEBEB"/>
<rect x="66.4004" y="1.92529" width="65.0747" height="0.381606" transform="rotate(90 66.4004 1.92529)" fill="#EBEBEB"/>
<rect x="70.9785" y="1.92529" width="65.0747" height="0.381606" transform="rotate(90 70.9785 1.92529)" fill="#EBEBEB"/>
<rect x="75.5586" y="1.92529" width="65.0747" height="0.381606" transform="rotate(90 75.5586 1.92529)" fill="#EBEBEB"/>
<rect x="80.1367" y="1.92529" width="65.0747" height="0.381606" transform="rotate(90 80.1367 1.92529)" fill="#EBEBEB"/>
<rect x="84.7168" y="1.92529" width="65.0747" height="0.381606" transform="rotate(90 84.7168 1.92529)" fill="#EBEBEB"/>
<rect x="89.2969" y="1.92529" width="65.0747" height="0.381606" transform="rotate(90 89.2969 1.92529)" fill="#EBEBEB"/>
<rect x="93.875" width="67" height="0.381606" transform="rotate(90 93.875 0)" fill="#D7D7D7"/>
<rect x="98.4551" y="1.92529" width="65.0747" height="0.381606" transform="rotate(90 98.4551 1.92529)" fill="#EBEBEB"/>
<rect x="103.035" y="1.92529" width="65.0747" height="0.381606" transform="rotate(90 103.035 1.92529)" fill="#EBEBEB"/>
<rect x="107.613" y="1.92529" width="65.0747" height="0.381606" transform="rotate(90 107.613 1.92529)" fill="#EBEBEB"/>
<rect x="112.193" y="1.92529" width="65.0747" height="0.381606" transform="rotate(90 112.193 1.92529)" fill="#EBEBEB"/>
<rect x="116.773" y="1.92529" width="65.0747" height="0.381606" transform="rotate(90 116.773 1.92529)" fill="#EBEBEB"/>
<rect x="121.352" y="1.92529" width="65.0747" height="0.381606" transform="rotate(90 121.352 1.92529)" fill="#EBEBEB"/>
<rect x="125.932" y="1.92529" width="65.0747" height="0.381606" transform="rotate(90 125.932 1.92529)" fill="#EBEBEB"/>
<rect x="130.51" y="1.92529" width="65.0747" height="0.381606" transform="rotate(90 130.51 1.92529)" fill="#EBEBEB"/>
<rect x="135.09" y="1.92529" width="65.0747" height="0.381606" transform="rotate(90 135.09 1.92529)" fill="#EBEBEB"/>
<rect x="139.668" width="67" height="0.381606" transform="rotate(90 139.668 0)" fill="#D7D7D7"/>
<rect x="144.248" y="1.92529" width="65.0747" height="0.381606" transform="rotate(90 144.248 1.92529)" fill="#EBEBEB"/>
<rect x="148.828" y="1.92529" width="65.0747" height="0.381606" transform="rotate(90 148.828 1.92529)" fill="#EBEBEB"/>
<rect x="153.406" y="1.92529" width="65.0747" height="0.381606" transform="rotate(90 153.406 1.92529)" fill="#EBEBEB"/>
<rect x="157.986" y="1.92529" width="65.0747" height="0.381606" transform="rotate(90 157.986 1.92529)" fill="#EBEBEB"/>
<rect x="162.566" y="1.92529" width="65.0747" height="0.381606" transform="rotate(90 162.566 1.92529)" fill="#EBEBEB"/>
<rect x="167.145" y="1.92529" width="65.0747" height="0.381606" transform="rotate(90 167.145 1.92529)" fill="#EBEBEB"/>
<rect x="171.725" y="1.92529" width="65.0747" height="0.381606" transform="rotate(90 171.725 1.92529)" fill="#EBEBEB"/>
<rect x="176.305" y="1.92529" width="65.0747" height="0.381606" transform="rotate(90 176.305 1.92529)" fill="#EBEBEB"/>
<rect x="180.883" y="1.92529" width="65.0747" height="0.381606" transform="rotate(90 180.883 1.92529)" fill="#EBEBEB"/>
<rect x="185.463" width="67" height="0.381606" transform="rotate(90 185.463 0)" fill="#D7D7D7"/>
<rect x="190.041" y="1.92529" width="65.0747" height="0.381606" transform="rotate(90 190.041 1.92529)" fill="#EBEBEB"/>
<rect x="194.621" y="1.92529" width="65.0747" height="0.381606" transform="rotate(90 194.621 1.92529)" fill="#EBEBEB"/>
<rect x="199.199" y="1.92529" width="65.0747" height="0.381606" transform="rotate(90 199.199 1.92529)" fill="#EBEBEB"/>
<rect x="203.779" y="1.92529" width="65.0747" height="0.381606" transform="rotate(90 203.779 1.92529)" fill="#EBEBEB"/>
<rect x="208.359" y="1.92529" width="65.0747" height="0.381606" transform="rotate(90 208.359 1.92529)" fill="#EBEBEB"/>
<rect x="212.938" y="1.92529" width="65.0747" height="0.381606" transform="rotate(90 212.938 1.92529)" fill="#EBEBEB"/>
<rect x="217.518" y="1.92529" width="65.0747" height="0.381606" transform="rotate(90 217.518 1.92529)" fill="#EBEBEB"/>
<rect x="222.098" y="1.92529" width="65.0747" height="0.381606" transform="rotate(90 222.098 1.92529)" fill="#EBEBEB"/>
<rect x="226.676" y="1.92529" width="65.0747" height="0.381606" transform="rotate(90 226.676 1.92529)" fill="#EBEBEB"/>
<rect x="231.256" width="67" height="0.381606" transform="rotate(90 231.256 0)" fill="#D7D7D7"/>
<rect x="235.834" y="1.92529" width="65.0747" height="0.381606" transform="rotate(90 235.834 1.92529)" fill="#EBEBEB"/>
<rect x="240.414" y="1.92529" width="65.0747" height="0.381606" transform="rotate(90 240.414 1.92529)" fill="#EBEBEB"/>
<rect x="244.992" y="1.92529" width="65.0747" height="0.381606" transform="rotate(90 244.992 1.92529)" fill="#EBEBEB"/>
<rect x="249.572" y="1.92529" width="65.0747" height="0.381606" transform="rotate(90 249.572 1.92529)" fill="#EBEBEB"/>
<rect x="254.152" y="1.92529" width="65.0747" height="0.381606" transform="rotate(90 254.152 1.92529)" fill="#EBEBEB"/>
<rect x="258.73" y="1.92529" width="65.0747" height="0.381606" transform="rotate(90 258.73 1.92529)" fill="#EBEBEB"/>
<rect x="263.311" y="1.92529" width="65.0747" height="0.381606" transform="rotate(90 263.311 1.92529)" fill="#EBEBEB"/>
<rect x="267.891" y="1.92529" width="65.0747" height="0.381606" transform="rotate(90 267.891 1.92529)" fill="#EBEBEB"/>
<rect x="272.469" y="1.92529" width="65.0747" height="0.381606" transform="rotate(90 272.469 1.92529)" fill="#EBEBEB"/>
<rect x="277.049" width="67" height="0.381606" transform="rotate(90 277.049 0)" fill="#D7D7D7"/>
<rect x="281.627" y="1.92529" width="65.0747" height="0.381606" transform="rotate(90 281.627 1.92529)" fill="#EBEBEB"/>
<rect x="286.207" y="1.92529" width="65.0747" height="0.381606" transform="rotate(90 286.207 1.92529)" fill="#EBEBEB"/>
<rect x="290.785" y="1.92529" width="65.0747" height="0.381606" transform="rotate(90 290.785 1.92529)" fill="#EBEBEB"/>
<rect x="295.365" y="1.92529" width="65.0747" height="0.381606" transform="rotate(90 295.365 1.92529)" fill="#EBEBEB"/>
<rect x="299.945" y="1.92529" width="65.0747" height="0.381606" transform="rotate(90 299.945 1.92529)" fill="#EBEBEB"/>
<rect x="304.523" y="1.92529" width="65.0747" height="0.381606" transform="rotate(90 304.523 1.92529)" fill="#EBEBEB"/>
<rect x="309.104" y="1.92529" width="65.0747" height="0.381606" transform="rotate(90 309.104 1.92529)" fill="#EBEBEB"/>
<rect x="313.684" y="1.92529" width="65.0747" height="0.381606" transform="rotate(90 313.684 1.92529)" fill="#EBEBEB"/>
<rect x="318.262" y="1.92529" width="65.0747" height="0.381606" transform="rotate(90 318.262 1.92529)" fill="#EBEBEB"/>
<rect x="322.842" width="67" height="0.381606" transform="rotate(90 322.842 0)" fill="#EBEBEB"/>
<rect x="327.42" y="1.92529" width="65.0747" height="0.381606" transform="rotate(90 327.42 1.92529)" fill="#EBEBEB"/>
<rect x="332" y="1.92529" width="65.0747" height="0.381606" transform="rotate(90 332 1.92529)" fill="#EBEBEB"/>
<rect x="1.33594" y="1.34772" width="330.283" height="0.962644" fill="#C8C8C8"/>
<rect x="2.28906" y="1.34772" width="65.6523" height="0.95402" transform="rotate(90 2.28906 1.34772)" fill="#C8C8C8"/>
</svg>
